<svg width="169" height="38" viewBox="0 0 169 38" fill="none" xmlns="http://www.w3.org/2000/svg">
<rect width="169" height="38" rx="10" fill="#FE9920" fill-opacity="0.17"/>
<path d="M30.44 22.36C30.1067 23.1067 29.76 23.76 29.4 24.32C29.0533 24.8667 28.6667 25.32 28.24 25.68C27.8267 26.04 27.36 26.3067 26.84 26.48C26.3333 26.6533 25.76 26.74 25.12 26.74C24.7333 26.74 24.3267 26.7 23.9 26.62C23.4867 26.54 23.1467 26.44 22.88 26.32L23.34 24.24C23.5933 24.3467 23.86 24.4333 24.14 24.5C24.42 24.5533 24.7067 24.58 25 24.58C25.6133 24.58 26.12 24.44 26.52 24.16C26.9333 23.88 27.3133 23.42 27.66 22.78C27.1 21.8733 26.56 20.96 26.04 20.04C25.5333 19.12 25.06 18.2267 24.62 17.36C24.18 16.48 23.7733 15.64 23.4 14.84C23.04 14.04 22.7133 13.3067 22.42 12.64H25.24C25.4533 13.1867 25.6933 13.7733 25.96 14.4C26.24 15.0267 26.5333 15.6733 26.84 16.34C27.16 17.0067 27.4933 17.6867 27.84 18.38C28.1867 19.0733 28.5333 19.7667 28.88 20.46C29.36 19.2733 29.82 18.0067 30.26 16.66C30.7 15.3133 31.1133 13.9733 31.5 12.64H34.22C33.9 13.6267 33.58 14.56 33.26 15.44C32.94 16.3067 32.62 17.14 32.3 17.94C31.9933 18.7267 31.68 19.4867 31.36 20.22C31.0533 20.94 30.7467 21.6533 30.44 22.36ZM34.5242 26.5C35.1376 25.4733 35.8376 24.4867 36.6242 23.54C37.4109 22.58 38.2042 21.6933 39.0042 20.88C38.2442 20.0667 37.5042 19.24 36.7842 18.4C36.0642 17.5467 35.4309 16.76 34.8842 16.04H37.6642C38.0776 16.6 38.5576 17.22 39.1042 17.9C39.6642 18.58 40.3509 19.4133 41.1642 20.4V16.04H43.5042V20.4C44.3442 19.4267 45.0376 18.5933 45.5842 17.9C46.1309 17.2067 46.6109 16.5867 47.0242 16.04H49.7642C49.2576 16.76 48.6442 17.54 47.9242 18.38C47.2176 19.22 46.4709 20.0467 45.6842 20.86C46.5642 21.74 47.3709 22.64 48.1042 23.56C48.8509 24.48 49.5376 25.46 50.1642 26.5H47.4642C47.1976 26.1 46.9042 25.68 46.5842 25.24C46.2776 24.8 45.9509 24.3667 45.6042 23.94C45.2709 23.5 44.9242 23.08 44.5642 22.68C44.2042 22.28 43.8509 21.9067 43.5042 21.56V26.5H41.1642V21.56C40.8176 21.92 40.4642 22.3067 40.1042 22.72C39.7442 23.1333 39.3909 23.56 39.0442 24C38.7109 24.4267 38.3842 24.8533 38.0642 25.28C37.7576 25.7067 37.4776 26.1133 37.2242 26.5H34.5242ZM50.8311 21.32C50.8311 20.4 50.9644 19.5933 51.2311 18.9C51.5111 18.2067 51.8778 17.6333 52.3311 17.18C52.7844 16.7133 53.3044 16.3667 53.8911 16.14C54.4778 15.9 55.0778 15.78 55.6911 15.78C57.1311 15.78 58.2511 16.2267 59.0511 17.12C59.8644 18.0133 60.2711 19.3467 60.2711 21.12C60.2711 21.2533 60.2644 21.4067 60.2511 21.58C60.2511 21.74 60.2444 21.8867 60.2311 22.02H53.3311C53.3978 22.86 53.6911 23.5133 54.2111 23.98C54.7444 24.4333 55.5111 24.66 56.5111 24.66C57.0978 24.66 57.6311 24.6067 58.1111 24.5C58.6044 24.3933 58.9911 24.28 59.2711 24.16L59.5911 26.14C59.4578 26.2067 59.2711 26.28 59.0311 26.36C58.8044 26.4267 58.5378 26.4867 58.2311 26.54C57.9378 26.6067 57.6178 26.66 57.2711 26.7C56.9244 26.74 56.5711 26.76 56.2111 26.76C55.2911 26.76 54.4911 26.6267 53.8111 26.36C53.1311 26.08 52.5711 25.7 52.1311 25.22C51.6911 24.7267 51.3644 24.1533 51.1511 23.5C50.9378 22.8333 50.8311 22.1067 50.8311 21.32ZM57.8511 20.24C57.8511 19.9067 57.8044 19.5933 57.7111 19.3C57.6178 18.9933 57.4778 18.7333 57.2911 18.52C57.1178 18.2933 56.8978 18.12 56.6311 18C56.3778 17.8667 56.0711 17.8 55.7111 17.8C55.3378 17.8 55.0111 17.8733 54.7311 18.02C54.4511 18.1533 54.2111 18.3333 54.0111 18.56C53.8244 18.7867 53.6778 19.0467 53.5711 19.34C53.4644 19.6333 53.3911 19.9333 53.3511 20.24H57.8511ZM69.9248 20.24C70.2315 19.9333 70.5648 19.5933 70.9248 19.22C71.2848 18.8333 71.6382 18.4467 71.9848 18.06C72.3448 17.6733 72.6848 17.3067 73.0048 16.96C73.3248 16.6 73.5915 16.2933 73.8048 16.04H76.6448C76.3515 16.3867 76.0115 16.7667 75.6248 17.18C75.2515 17.5933 74.8582 18.02 74.4448 18.46C74.0448 18.8867 73.6448 19.3067 73.2448 19.72C72.8582 20.12 72.5048 20.48 72.1848 20.8C72.5982 21.1467 73.0248 21.5533 73.4648 22.02C73.9182 22.4733 74.3582 22.96 74.7848 23.48C75.2248 23.9867 75.6315 24.5067 76.0048 25.04C76.3782 25.56 76.6915 26.0467 76.9448 26.5H74.1448C73.8915 26.1 73.5915 25.68 73.2448 25.24C72.9115 24.8 72.5582 24.3733 72.1848 23.96C71.8115 23.5333 71.4315 23.1333 71.0448 22.76C70.6582 22.3867 70.2848 22.0667 69.9248 21.8V26.5H67.5048V16.04H69.9248V20.24ZM87.2363 16.04C86.1563 20.0133 84.9029 23.6133 83.4763 26.84C83.2096 27.44 82.9363 27.9533 82.6563 28.38C82.3763 28.8067 82.0629 29.16 81.7163 29.44C81.3696 29.72 80.9829 29.92 80.5563 30.04C80.1296 30.1733 79.6363 30.24 79.0763 30.24C78.7029 30.24 78.3296 30.2 77.9563 30.12C77.5963 30.04 77.3229 29.9533 77.1362 29.86L77.5763 27.92C78.0563 28.1067 78.5296 28.2 78.9963 28.2C79.6229 28.2 80.1096 28.0467 80.4563 27.74C80.8163 27.4467 81.1296 26.9867 81.3963 26.36C80.6363 24.8933 79.9029 23.2933 79.1963 21.56C78.5029 19.8267 77.8829 17.9867 77.3363 16.04H79.9163C80.0496 16.6 80.2096 17.2067 80.3963 17.86C80.5963 18.5133 80.8096 19.18 81.0363 19.86C81.2629 20.5267 81.5029 21.1933 81.7563 21.86C82.0096 22.5267 82.2629 23.1467 82.5163 23.72C82.9429 22.5333 83.3429 21.2733 83.7163 19.94C84.0896 18.5933 84.4296 17.2933 84.7363 16.04H87.2363ZM97.7673 16.04V26.5H95.3473V18.06H91.4873V26.5H89.0673V16.04H97.7673ZM104.945 18.04C104.931 18.6267 104.911 19.24 104.885 19.88C104.858 20.5067 104.791 21.1267 104.685 21.74C104.591 22.3533 104.438 22.94 104.225 23.5C104.011 24.06 103.711 24.5667 103.325 25.02C102.951 25.46 102.478 25.8333 101.905 26.14C101.345 26.4333 100.658 26.62 99.8447 26.7L99.5047 24.68C100.185 24.5467 100.711 24.3333 101.085 24.04C101.458 23.7333 101.745 23.3467 101.945 22.88C102.105 22.5333 102.225 22.14 102.305 21.7C102.398 21.26 102.465 20.8 102.505 20.32C102.558 19.8267 102.591 19.3267 102.605 18.82C102.618 18.3133 102.625 17.82 102.625 17.34V16.04H110.025V26.5H107.605V18.04H104.945ZM112.53 21.32C112.53 20.4 112.664 19.5933 112.93 18.9C113.21 18.2067 113.577 17.6333 114.03 17.18C114.484 16.7133 115.004 16.3667 115.59 16.14C116.177 15.9 116.777 15.78 117.39 15.78C118.83 15.78 119.95 16.2267 120.75 17.12C121.564 18.0133 121.97 19.3467 121.97 21.12C121.97 21.2533 121.964 21.4067 121.95 21.58C121.95 21.74 121.944 21.8867 121.93 22.02H115.03C115.097 22.86 115.39 23.5133 115.91 23.98C116.444 24.4333 117.21 24.66 118.21 24.66C118.797 24.66 119.33 24.6067 119.81 24.5C120.304 24.3933 120.69 24.28 120.97 24.16L121.29 26.14C121.157 26.2067 120.97 26.28 120.73 26.36C120.504 26.4267 120.237 26.4867 119.93 26.54C119.637 26.6067 119.317 26.66 118.97 26.7C118.624 26.74 118.27 26.76 117.91 26.76C116.99 26.76 116.19 26.6267 115.51 26.36C114.83 26.08 114.27 25.7 113.83 25.22C113.39 24.7267 113.064 24.1533 112.85 23.5C112.637 22.8333 112.53 22.1067 112.53 21.32ZM119.55 20.24C119.55 19.9067 119.504 19.5933 119.41 19.3C119.317 18.9933 119.177 18.7333 118.99 18.52C118.817 18.2933 118.597 18.12 118.33 18C118.077 17.8667 117.77 17.8 117.41 17.8C117.037 17.8 116.71 17.8733 116.43 18.02C116.15 18.1533 115.91 18.3333 115.71 18.56C115.524 18.7867 115.377 19.0467 115.27 19.34C115.164 19.6333 115.09 19.9333 115.05 20.24H119.55ZM133.316 26.5H130.896V22.12H126.956V26.5H124.536V16.04H126.956V20.12H130.896V16.04H133.316V26.5ZM145.852 21.26C145.852 22.0867 145.732 22.84 145.492 23.52C145.252 24.2 144.912 24.78 144.472 25.26C144.032 25.74 143.498 26.1133 142.872 26.38C142.258 26.6467 141.578 26.78 140.832 26.78C140.085 26.78 139.405 26.6467 138.792 26.38C138.178 26.1133 137.652 25.74 137.212 25.26C136.772 24.78 136.425 24.2 136.172 23.52C135.932 22.84 135.812 22.0867 135.812 21.26C135.812 20.4333 135.932 19.6867 136.172 19.02C136.425 18.34 136.772 17.76 137.212 17.28C137.665 16.8 138.198 16.4333 138.812 16.18C139.425 15.9133 140.098 15.78 140.832 15.78C141.565 15.78 142.238 15.9133 142.852 16.18C143.478 16.4333 144.012 16.8 144.452 17.28C144.892 17.76 145.232 18.34 145.472 19.02C145.725 19.6867 145.852 20.4333 145.852 21.26ZM143.372 21.26C143.372 20.22 143.145 19.4 142.692 18.8C142.252 18.1867 141.632 17.88 140.832 17.88C140.032 17.88 139.405 18.1867 138.952 18.8C138.512 19.4 138.292 20.22 138.292 21.26C138.292 22.3133 138.512 23.1467 138.952 23.76C139.405 24.3733 140.032 24.68 140.832 24.68C141.632 24.68 142.252 24.3733 142.692 23.76C143.145 23.1467 143.372 22.3133 143.372 21.26Z" fill="white"/>
</svg>
