<svg width="110" height="38" viewBox="0 0 110 38" fill="none" xmlns="http://www.w3.org/2000/svg">
<rect width="110" height="38" rx="10" fill="#FE9920"/>
<path d="M30.94 26.5C30.5933 25.9667 30.1933 25.4067 29.74 24.82C29.2867 24.2333 28.8067 23.6667 28.3 23.12C27.8067 22.5733 27.2933 22.0533 26.76 21.56C26.2267 21.0667 25.7 20.64 25.18 20.28V26.5H22.66V12.64H25.18V18.36C25.62 17.92 26.08 17.4533 26.56 16.96C27.04 16.4533 27.5133 15.9467 27.98 15.44C28.46 14.92 28.9133 14.42 29.34 13.94C29.7667 13.46 30.1533 13.0267 30.5 12.64H33.52C33.08 13.1467 32.6133 13.6733 32.12 14.22C31.6267 14.7667 31.12 15.32 30.6 15.88C30.08 16.4267 29.5533 16.9733 29.02 17.52C28.5 18.0667 27.9867 18.5867 27.48 19.08C28.04 19.5067 28.6067 20.0067 29.18 20.58C29.7667 21.14 30.34 21.7467 30.9 22.4C31.46 23.04 31.9933 23.7133 32.5 24.42C33.02 25.1133 33.4933 25.8067 33.92 26.5H30.94ZM43.248 16.04C42.168 20.0133 40.9146 23.6133 39.488 26.84C39.2213 27.44 38.948 27.9533 38.668 28.38C38.388 28.8067 38.0746 29.16 37.728 29.44C37.3813 29.72 36.9946 29.92 36.568 30.04C36.1413 30.1733 35.648 30.24 35.088 30.24C34.7146 30.24 34.3413 30.2 33.968 30.12C33.608 30.04 33.3346 29.9533 33.148 29.86L33.588 27.92C34.068 28.1067 34.5413 28.2 35.008 28.2C35.6346 28.2 36.1213 28.0467 36.468 27.74C36.828 27.4467 37.1413 26.9867 37.408 26.36C36.648 24.8933 35.9146 23.2933 35.208 21.56C34.5146 19.8267 33.8946 17.9867 33.348 16.04H35.928C36.0613 16.6 36.2213 17.2067 36.408 17.86C36.608 18.5133 36.8213 19.18 37.048 19.86C37.2746 20.5267 37.5146 21.1933 37.768 21.86C38.0213 22.5267 38.2746 23.1467 38.528 23.72C38.9546 22.5333 39.3546 21.2733 39.728 19.94C40.1013 18.5933 40.4413 17.2933 40.748 16.04H43.248ZM53.7791 16.04V26.5H51.3591V18.06H47.4991V26.5H45.0791V16.04H53.7791ZM66.0164 16.04V26.5H63.6164C63.6164 25.74 63.6164 24.9867 63.6164 24.24C63.6297 23.4933 63.6364 22.8 63.6364 22.16C63.6497 21.52 63.6564 20.9667 63.6564 20.5C63.6697 20.02 63.6764 19.6667 63.6764 19.44C63.2764 19.96 62.8631 20.5333 62.4364 21.16C62.0097 21.7867 61.5831 22.4133 61.1564 23.04C60.7431 23.6667 60.3497 24.28 59.9764 24.88C59.6031 25.48 59.2764 26.02 58.9964 26.5H56.8564V16.04H59.2364C59.2364 16.8133 59.2297 17.5533 59.2164 18.26C59.2164 18.9533 59.2164 19.5867 59.2164 20.16C59.2164 20.7333 59.2097 21.2333 59.1964 21.66C59.1964 22.0867 59.1964 22.4133 59.1964 22.64C59.5697 22.0667 59.9564 21.48 60.3564 20.88C60.7564 20.2667 61.1564 19.6733 61.5564 19.1C61.9697 18.5133 62.3764 17.96 62.7764 17.44C63.1764 16.92 63.5631 16.4533 63.9364 16.04H66.0164ZM76.9825 18.06H73.6025V26.5H71.1825V18.06H67.8225V16.04H76.9825V18.06ZM81.21 19.9C81.41 19.8467 81.7033 19.8 82.09 19.76C82.4767 19.72 82.8633 19.7 83.25 19.7C83.85 19.7 84.41 19.7667 84.93 19.9C85.4633 20.0333 85.9233 20.2467 86.31 20.54C86.6967 20.82 87.0033 21.1867 87.23 21.64C87.4567 22.08 87.57 22.6067 87.57 23.22C87.57 23.8467 87.4633 24.38 87.25 24.82C87.0367 25.26 86.73 25.62 86.33 25.9C85.93 26.18 85.45 26.3867 84.89 26.52C84.3433 26.6533 83.73 26.72 83.05 26.72C82.2633 26.72 81.53 26.68 80.85 26.6C80.17 26.52 79.4833 26.4 78.79 26.24V16.04H81.21V19.9ZM82.99 24.82C83.67 24.82 84.1967 24.6933 84.57 24.44C84.9567 24.1733 85.15 23.7533 85.15 23.18C85.15 22.8867 85.0833 22.64 84.95 22.44C84.83 22.24 84.6633 22.08 84.45 21.96C84.25 21.8267 84.01 21.7333 83.73 21.68C83.45 21.6267 83.1567 21.6 82.85 21.6C82.57 21.6 82.2767 21.6133 81.97 21.64C81.6633 21.6533 81.41 21.6867 81.21 21.74V24.72C81.3833 24.7467 81.6367 24.7733 81.97 24.8C82.3167 24.8133 82.6567 24.82 82.99 24.82Z" fill="white"/>
</svg>
