<svg width="38" height="51" viewBox="0 0 38 51" fill="none" xmlns="http://www.w3.org/2000/svg">
<path d="M9.98616 23.194H16.7502V15.746H20.8542V23.194H27.6182V27.07H20.8542V34.518H16.7502V27.07H9.98616V23.194Z" fill="#8AC926"/>
<rect x="0.640625" y="10" width="36.5843" height="30" rx="10" fill="#FE9920"/>
<path d="M21.3366 31C21.0273 30.3707 20.638 29.6773 20.1686 28.92C19.6993 28.1627 19.2086 27.432 18.6966 26.728C18.4833 27.0053 18.2486 27.336 17.9926 27.72C17.7473 28.104 17.4966 28.4987 17.2406 28.904C16.9953 29.2987 16.766 29.6827 16.5526 30.056C16.3393 30.4293 16.1686 30.744 16.0406 31H13.7526C14.2326 30.0933 14.7873 29.1653 15.4166 28.216C16.046 27.256 16.7286 26.2533 17.4646 25.208L13.9126 19.912H16.3126L18.7606 23.704L21.1766 19.912H23.4806L19.9766 25.192C20.7873 26.2907 21.502 27.3307 22.1206 28.312C22.75 29.2933 23.278 30.1893 23.7046 31H21.3366Z" fill="white"/>
</svg>
